<svg width="24" height="25" viewBox="0 0 24 25" fill="none" xmlns="http://www.w3.org/2000/svg">
<g id="vuesax/linear/clipboard-text">
<g id="clipboard-text">
<path id="Vector" d="M8 12.7H15" stroke="#A0A7B4" stroke-width="1.5" stroke-miterlimit="10" stroke-linecap="round" stroke-linejoin="round"/>
<path id="Vector_2" d="M8 16.7H12.38" stroke="#A0A7B4" stroke-width="1.5" stroke-miterlimit="10" stroke-linecap="round" stroke-linejoin="round"/>
<path id="Vector_3" d="M10 6.5H14C16 6.5 16 5.5 16 4.5C16 2.5 15 2.5 14 2.5H10C9 2.5 8 2.5 8 4.5C8 6.5 9 6.5 10 6.5Z" stroke="#A0A7B4" stroke-width="1.5" stroke-miterlimit="10" stroke-linecap="round" stroke-linejoin="round"/>
<path id="Vector_4" d="M16 4.52C19.33 4.7 21 5.93 21 10.5V16.5C21 20.5 20 22.5 15 22.5H9C4 22.5 3 20.5 3 16.5V10.5C3 5.94 4.67 4.7 8 4.52" stroke="#A0A7B4" stroke-width="1.5" stroke-miterlimit="10" stroke-linecap="round" stroke-linejoin="round"/>
</g>
</g>
</svg>
